<?xml version="1.0" encoding="UTF-8" standalone="no"?>
<!-- Created with Inkscape (http://www.inkscape.org/) -->

<svg
   xmlns:dc="http://purl.org/dc/elements/1.1/"
   xmlns:cc="http://creativecommons.org/ns#"
   xmlns:rdf="http://www.w3.org/1999/02/22-rdf-syntax-ns#"
   xmlns:svg="http://www.w3.org/2000/svg"
   xmlns="http://www.w3.org/2000/svg"
   xmlns:xlink="http://www.w3.org/1999/xlink"
   xmlns:sodipodi="http://sodipodi.sourceforge.net/DTD/sodipodi-0.dtd"
   xmlns:inkscape="http://www.inkscape.org/namespaces/inkscape"
   width="1024"
   height="1024"
   viewBox="0 0 270.93333 270.93334"
   version="1.1"
   id="svg8"
   inkscape:version="0.92.4 5da689c313, 2019-01-14"
   sodipodi:docname="01n.svg">
  <defs
     id="defs2">
    <linearGradient
       id="linearGradient912"
       inkscape:collect="always">
      <stop
         id="stop908"
         offset="0"
         style="stop-color:#f5f5f5;stop-opacity:1" />
      <stop
         id="stop910"
         offset="1"
         style="stop-color:#969696;stop-opacity:1" />
    </linearGradient>
    <linearGradient
       inkscape:collect="always"
       id="linearGradient883">
      <stop
         style="stop-color:#969696;stop-opacity:1"
         offset="0"
         id="stop879" />
      <stop
         style="stop-color:#c8c8c8;stop-opacity:1"
         offset="1"
         id="stop881" />
    </linearGradient>
    <linearGradient
       id="linearGradient852"
       inkscape:collect="always">
      <stop
         id="stop848"
         offset="0"
         style="stop-color:#f5f5f5;stop-opacity:1;" />
      <stop
         id="stop850"
         offset="1"
         style="stop-color:#646464;stop-opacity:1" />
    </linearGradient>
    <linearGradient
       inkscape:collect="always"
       id="linearGradient834">
      <stop
         style="stop-color:#f5f5f5;stop-opacity:1;"
         offset="0"
         id="stop830" />
      <stop
         style="stop-color:#969696;stop-opacity:1"
         offset="1"
         id="stop832" />
    </linearGradient>
    <linearGradient
       inkscape:collect="always"
       id="linearGradient1386">
      <stop
         style="stop-color:#fffff9;stop-opacity:0.64705884"
         offset="0"
         id="stop1382" />
      <stop
         style="stop-color:#ffffff;stop-opacity:0"
         offset="1"
         id="stop1384" />
    </linearGradient>
    <radialGradient
       inkscape:collect="always"
       xlink:href="#linearGradient1386"
       id="radialGradient1398"
       cx="135.46666"
       cy="161.53331"
       fx="135.46666"
       fy="161.53331"
       r="135.46666"
       gradientUnits="userSpaceOnUse"
       gradientTransform="matrix(0.50000007,0,0,0.50000002,67.733344,80.766667)" />
    <radialGradient
       inkscape:collect="always"
       xlink:href="#linearGradient852"
       id="radialGradient836"
       cx="114.85494"
       cy="140.92157"
       fx="114.85494"
       fy="140.92157"
       r="52.916668"
       gradientUnits="userSpaceOnUse"
       gradientTransform="matrix(0,1.3832709,-1.3832709,0,309.78765,-17.953933)" />
    <radialGradient
       inkscape:collect="always"
       xlink:href="#linearGradient834"
       id="radialGradient843"
       gradientUnits="userSpaceOnUse"
       gradientTransform="matrix(0,5.2281105,-5.2281105,0,1170.851,-166.37701)"
       cx="114.85494"
       cy="140.92157"
       fx="114.85494"
       fy="140.92157"
       r="52.916668" />
    <radialGradient
       inkscape:collect="always"
       xlink:href="#linearGradient912"
       id="radialGradient885"
       cx="116.07093"
       cy="134.9847"
       fx="116.07093"
       fy="134.9847"
       r="6.4035198"
       gradientUnits="userSpaceOnUse"
       gradientTransform="matrix(0,-1.9086876,1.9086873,0,-135.40198,375.02204)" />
    <radialGradient
       inkscape:collect="always"
       xlink:href="#linearGradient883"
       id="radialGradient903"
       gradientUnits="userSpaceOnUse"
       gradientTransform="matrix(1.3206357e-6,-6.3900292,6.3900281,1.3206355e-6,-399.56353,1222.9289)"
       cx="116.0476"
       cy="134.91467"
       fx="116.0476"
       fy="134.91467"
       r="6.4035198" />
    <radialGradient
       inkscape:collect="always"
       xlink:href="#linearGradient912"
       id="radialGradient928"
       gradientUnits="userSpaceOnUse"
       gradientTransform="matrix(0,-1.9086876,1.9086873,0,-135.40198,375.02204)"
       cx="116.07093"
       cy="134.9847"
       fx="116.07093"
       fy="134.9847"
       r="6.4035198" />
    <radialGradient
       inkscape:collect="always"
       xlink:href="#linearGradient883"
       id="radialGradient930"
       gradientUnits="userSpaceOnUse"
       gradientTransform="matrix(1.3206357e-6,-6.3900292,6.3900281,1.3206355e-6,-399.56353,1222.9289)"
       cx="116.0476"
       cy="134.91467"
       fx="116.0476"
       fy="134.91467"
       r="6.4035198" />
    <radialGradient
       inkscape:collect="always"
       xlink:href="#linearGradient912"
       id="radialGradient938"
       gradientUnits="userSpaceOnUse"
       gradientTransform="matrix(0,-1.9086876,1.9086873,0,-135.40198,375.02204)"
       cx="116.07093"
       cy="134.9847"
       fx="116.07093"
       fy="134.9847"
       r="6.4035198" />
    <radialGradient
       inkscape:collect="always"
       xlink:href="#linearGradient883"
       id="radialGradient940"
       gradientUnits="userSpaceOnUse"
       gradientTransform="matrix(1.3206357e-6,-6.3900292,6.3900281,1.3206355e-6,-399.56353,1222.9289)"
       cx="116.0476"
       cy="134.91467"
       fx="116.0476"
       fy="134.91467"
       r="6.4035198" />
    <radialGradient
       inkscape:collect="always"
       xlink:href="#linearGradient912"
       id="radialGradient948"
       gradientUnits="userSpaceOnUse"
       gradientTransform="matrix(0,-1.9086876,1.9086873,0,-135.40198,375.02204)"
       cx="116.07093"
       cy="134.9847"
       fx="116.07093"
       fy="134.9847"
       r="6.4035198" />
    <radialGradient
       inkscape:collect="always"
       xlink:href="#linearGradient883"
       id="radialGradient950"
       gradientUnits="userSpaceOnUse"
       gradientTransform="matrix(1.3206357e-6,-6.3900292,6.3900281,1.3206355e-6,-399.56353,1222.9289)"
       cx="116.0476"
       cy="134.91467"
       fx="116.0476"
       fy="134.91467"
       r="6.4035198" />
    <radialGradient
       inkscape:collect="always"
       xlink:href="#linearGradient912"
       id="radialGradient958"
       gradientUnits="userSpaceOnUse"
       gradientTransform="matrix(0,-1.9086876,1.9086873,0,-135.40198,375.02204)"
       cx="116.07093"
       cy="134.9847"
       fx="116.07093"
       fy="134.9847"
       r="6.4035198" />
    <radialGradient
       inkscape:collect="always"
       xlink:href="#linearGradient883"
       id="radialGradient960"
       gradientUnits="userSpaceOnUse"
       gradientTransform="matrix(1.3206357e-6,-6.3900292,6.3900281,1.3206355e-6,-399.56353,1222.9289)"
       cx="116.0476"
       cy="134.91467"
       fx="116.0476"
       fy="134.91467"
       r="6.4035198" />
    <radialGradient
       inkscape:collect="always"
       xlink:href="#linearGradient912"
       id="radialGradient968"
       gradientUnits="userSpaceOnUse"
       gradientTransform="matrix(0,-1.9086876,1.9086873,0,-135.40198,375.02204)"
       cx="116.07093"
       cy="134.9847"
       fx="116.07093"
       fy="134.9847"
       r="6.4035198" />
    <radialGradient
       inkscape:collect="always"
       xlink:href="#linearGradient883"
       id="radialGradient970"
       gradientUnits="userSpaceOnUse"
       gradientTransform="matrix(1.3206357e-6,-6.3900292,6.3900281,1.3206355e-6,-399.56353,1222.9289)"
       cx="116.0476"
       cy="134.91467"
       fx="116.0476"
       fy="134.91467"
       r="6.4035198" />
    <radialGradient
       inkscape:collect="always"
       xlink:href="#linearGradient912"
       id="radialGradient978"
       gradientUnits="userSpaceOnUse"
       gradientTransform="matrix(0,-1.9086876,1.9086873,0,-135.40198,375.02204)"
       cx="116.07093"
       cy="134.9847"
       fx="116.07093"
       fy="134.9847"
       r="6.4035198" />
    <radialGradient
       inkscape:collect="always"
       xlink:href="#linearGradient883"
       id="radialGradient980"
       gradientUnits="userSpaceOnUse"
       gradientTransform="matrix(1.3206357e-6,-6.3900292,6.3900281,1.3206355e-6,-399.56353,1222.9289)"
       cx="116.0476"
       cy="134.91467"
       fx="116.0476"
       fy="134.91467"
       r="6.4035198" />
  </defs>
  <sodipodi:namedview
     id="base"
     pagecolor="#ffffff"
     bordercolor="#666666"
     borderopacity="1.0"
     inkscape:pageopacity="0.0"
     inkscape:pageshadow="2"
     inkscape:zoom="0.50062498"
     inkscape:cx="42.718933"
     inkscape:cy="432.30438"
     inkscape:document-units="mm"
     inkscape:current-layer="layer1"
     showgrid="false"
     units="px"
     inkscape:snap-object-midpoints="true"
     inkscape:window-width="1920"
     inkscape:window-height="1011"
     inkscape:window-x="0"
     inkscape:window-y="40"
     inkscape:window-maximized="1" />
  <metadata
     id="metadata5">
    <rdf:RDF>
      <cc:Work
         rdf:about="">
        <dc:format>image/svg+xml</dc:format>
        <dc:type
           rdf:resource="http://purl.org/dc/dcmitype/StillImage" />
        <dc:title></dc:title>
      </cc:Work>
    </rdf:RDF>
  </metadata>
  <g
     inkscape:label="Layer 1"
     inkscape:groupmode="layer"
     id="layer1"
     transform="translate(0,-26.06665)">
    <rect
       style="opacity:1;fill:url(#radialGradient1398);fill-opacity:1;fill-rule:nonzero;stroke:none;stroke-width:3.25747013;stroke-linecap:butt;stroke-linejoin:round;stroke-miterlimit:4;stroke-dasharray:none;stroke-opacity:0.85098039"
       id="rect1380"
       width="135.46666"
       height="135.46666"
       x="67.73333"
       y="93.799988"
       ry="0.16982274" />
    <g
       id="g920">
      <circle
         r="52.916668"
         cy="161.53331"
         cx="135.46667"
         id="path815"
         style="opacity:1;fill:url(#radialGradient836);fill-opacity:1;fill-rule:nonzero;stroke:none;stroke-width:1.85199988;stroke-linecap:butt;stroke-linejoin:round;stroke-miterlimit:4;stroke-dasharray:none;stroke-opacity:1" />
      <path
         transform="matrix(0.26458333,0,0,0.26458333,0,26.06665)"
         id="circle841"
         d="M 312.30078 506 A 185.51811 185.51811 0 0 0 312.46484 510.64062 A 185.51811 185.51811 0 0 0 314.69922 529.05078 A 185.51811 185.51811 0 0 0 318.75977 547.14453 A 185.51811 185.51811 0 0 0 324.60742 564.74219 A 185.51811 185.51811 0 0 0 332.18359 581.66797 A 185.51811 185.51811 0 0 0 341.41016 597.75391 A 185.51811 185.51811 0 0 0 352.19727 612.83789 A 185.51811 185.51811 0 0 0 364.43555 626.76953 A 185.51811 185.51811 0 0 0 378.00391 639.41016 A 185.51811 185.51811 0 0 0 392.76758 650.63281 A 185.51811 185.51811 0 0 0 408.57617 660.32617 A 185.51811 185.51811 0 0 0 425.27344 668.39062 A 185.51811 185.51811 0 0 0 442.69336 674.75 A 185.51811 185.51811 0 0 0 460.66211 679.33789 A 185.51811 185.51811 0 0 0 478.99805 682.10938 A 185.51811 185.51811 0 0 0 497.51758 683.03711 A 185.51811 185.51811 0 0 0 510.64062 682.57227 A 185.51811 185.51811 0 0 0 529.05078 680.33594 A 185.51811 185.51811 0 0 0 547.14453 676.27539 A 185.51811 185.51811 0 0 0 564.74219 670.42773 A 185.51811 185.51811 0 0 0 581.66797 662.85352 A 185.51811 185.51811 0 0 0 597.75391 653.62695 A 185.51811 185.51811 0 0 0 612.83789 642.83984 A 185.51811 185.51811 0 0 0 626.76953 630.60156 A 185.51811 185.51811 0 0 0 639.41016 617.03125 A 185.51811 185.51811 0 0 0 650.63281 602.26953 A 185.51811 185.51811 0 0 0 660.32617 586.46094 A 185.51811 185.51811 0 0 0 668.39258 569.76172 A 185.51811 185.51811 0 0 0 674.75 552.3418 A 185.51811 185.51811 0 0 0 679.33789 534.375 A 185.51811 185.51811 0 0 0 682.10938 516.03906 A 185.51811 185.51811 0 0 0 683.03711 497.51758 A 185.51811 185.51811 0 0 0 682.57227 484.39453 A 185.51811 185.51811 0 0 0 680.33789 465.98633 A 185.51811 185.51811 0 0 0 676.27539 447.89258 A 185.51811 185.51811 0 0 0 670.42773 430.29492 A 185.51811 185.51811 0 0 0 662.85352 413.36719 A 185.51811 185.51811 0 0 0 653.62695 397.2832 A 185.51811 185.51811 0 0 0 642.83984 382.19727 A 185.51811 185.51811 0 0 0 630.60156 368.26562 A 185.51811 185.51811 0 0 0 617.03125 355.62695 A 185.51811 185.51811 0 0 0 602.26953 344.4043 A 185.51811 185.51811 0 0 0 586.46094 334.71094 A 185.51811 185.51811 0 0 0 569.76172 326.64453 A 185.51811 185.51811 0 0 0 552.3418 320.28516 A 185.51811 185.51811 0 0 0 534.375 315.69727 A 185.51811 185.51811 0 0 0 516.03906 312.92773 A 185.51811 185.51811 0 0 0 503.50977 312.30078 A 200 200 0 0 0 312.30078 506 z "
         style="opacity:1;fill:url(#radialGradient843);fill-opacity:1;fill-rule:nonzero;stroke:none;stroke-width:6.99968481;stroke-linecap:butt;stroke-linejoin:round;stroke-miterlimit:4;stroke-dasharray:none;stroke-opacity:1" />
    </g>
    <g
       id="g916"
       transform="matrix(1.3698713,0,0,1.3698713,-35.963749,-44.604076)"
       style="opacity:1">
      <circle
         r="6.0727906"
         cy="147.42247"
         cx="116.3173"
         id="path877"
         style="opacity:1;fill:url(#radialGradient885);fill-opacity:1;fill-rule:nonzero;stroke:none;stroke-width:0.66145831;stroke-linecap:butt;stroke-linejoin:round;stroke-miterlimit:4;stroke-dasharray:none;stroke-opacity:1" />
      <path
         transform="matrix(0.26458333,0,0,0.26458333,0,26.06665)"
         id="path906"
         d="m 462.52148,459.75977 a 20.392218,20.392218 0 0 0 -0.24218,-1.99805 20.392218,20.392218 0 0 0 -0.44532,-1.98828 20.392218,20.392218 0 0 0 -0.64257,-1.93555 20.392218,20.392218 0 0 0 -0.83399,-1.85937 20.392218,20.392218 0 0 0 -1.01367,-1.76954 20.392218,20.392218 0 0 0 -1.18555,-1.6582 20.392218,20.392218 0 0 0 -1.3457,-1.53125 20.392218,20.392218 0 0 0 -1.49023,-1.38867 20.392218,20.392218 0 0 0 -1.62305,-1.23438 20.392218,20.392218 0 0 0 -1.73828,-1.06445 20.392218,20.392218 0 0 0 -1.83594,-0.88672 20.392218,20.392218 0 0 0 -1.91406,-0.69922 20.392218,20.392218 0 0 0 -1.97461,-0.5039 20.392218,20.392218 0 0 0 -2.01563,-0.30469 20.392218,20.392218 0 0 0 -2.03711,-0.10156 20.392218,20.392218 0 0 0 -1.4414,0.0508 20.392218,20.392218 0 0 0 -2.02344,0.24609 20.392218,20.392218 0 0 0 -1.98828,0.44531 20.392218,20.392218 0 0 0 -1.93555,0.64258 20.392218,20.392218 0 0 0 -1.85937,0.83399 20.392218,20.392218 0 0 0 -1.76953,1.01367 20.392218,20.392218 0 0 0 -1.65821,1.18555 20.392218,20.392218 0 0 0 -1.53125,1.3457 20.392218,20.392218 0 0 0 -1.38867,1.49023 20.392218,20.392218 0 0 0 -1.23437,1.62305 20.392218,20.392218 0 0 0 -1.06446,1.73828 20.392218,20.392218 0 0 0 -0.88672,1.83594 20.392218,20.392218 0 0 0 -0.69922,1.91406 20.392218,20.392218 0 0 0 -0.5039,1.97461 20.392218,20.392218 0 0 0 -0.30469,2.01563 20.392218,20.392218 0 0 0 -0.10156,2.03711 20.392218,20.392218 0 0 0 0.0508,1.4414 20.392218,20.392218 0 0 0 0.24609,2.02344 20.392218,20.392218 0 0 0 0.44532,1.99023 20.392218,20.392218 0 0 0 0.64257,1.9336 20.392218,20.392218 0 0 0 0.83399,1.86133 20.392218,20.392218 0 0 0 1.01367,1.76757 20.392218,20.392218 0 0 0 1.18555,1.65821 20.392218,20.392218 0 0 0 1.3457,1.53125 20.392218,20.392218 0 0 0 1.49024,1.38867 20.392218,20.392218 0 0 0 1.62304,1.23437 20.392218,20.392218 0 0 0 1.73828,1.06446 20.392218,20.392218 0 0 0 1.83594,0.88672 20.392218,20.392218 0 0 0 1.91406,0.69921 20.392218,20.392218 0 0 0 1.97461,0.50391 20.392218,20.392218 0 0 0 2.01563,0.30469 20.392218,20.392218 0 0 0 0.98242,0.0488 22.95228,22.95228 0 0 0 21.39062,-21.80664 z"
         style="opacity:1;fill:url(#radialGradient903);fill-opacity:1;fill-rule:nonzero;stroke:none;stroke-width:2.5;stroke-linecap:butt;stroke-linejoin:round;stroke-miterlimit:4;stroke-dasharray:none;stroke-opacity:1"
         inkscape:connector-curvature="0" />
    </g>
    <g
       transform="matrix(0.73891444,0,0,0.73891444,61.001065,33.570755)"
       id="g926">
      <circle
         style="opacity:1;fill:url(#radialGradient928);fill-opacity:1;fill-rule:nonzero;stroke:none;stroke-width:0.66145831;stroke-linecap:butt;stroke-linejoin:round;stroke-miterlimit:4;stroke-dasharray:none;stroke-opacity:1"
         id="circle922"
         cx="116.3173"
         cy="147.42247"
         r="6.0727906" />
      <path
         inkscape:connector-curvature="0"
         style="opacity:1;fill:url(#radialGradient930);fill-opacity:1;fill-rule:nonzero;stroke:none;stroke-width:2.5;stroke-linecap:butt;stroke-linejoin:round;stroke-miterlimit:4;stroke-dasharray:none;stroke-opacity:1"
         d="m 462.52148,459.75977 a 20.392218,20.392218 0 0 0 -0.24218,-1.99805 20.392218,20.392218 0 0 0 -0.44532,-1.98828 20.392218,20.392218 0 0 0 -0.64257,-1.93555 20.392218,20.392218 0 0 0 -0.83399,-1.85937 20.392218,20.392218 0 0 0 -1.01367,-1.76954 20.392218,20.392218 0 0 0 -1.18555,-1.6582 20.392218,20.392218 0 0 0 -1.3457,-1.53125 20.392218,20.392218 0 0 0 -1.49023,-1.38867 20.392218,20.392218 0 0 0 -1.62305,-1.23438 20.392218,20.392218 0 0 0 -1.73828,-1.06445 20.392218,20.392218 0 0 0 -1.83594,-0.88672 20.392218,20.392218 0 0 0 -1.91406,-0.69922 20.392218,20.392218 0 0 0 -1.97461,-0.5039 20.392218,20.392218 0 0 0 -2.01563,-0.30469 20.392218,20.392218 0 0 0 -2.03711,-0.10156 20.392218,20.392218 0 0 0 -1.4414,0.0508 20.392218,20.392218 0 0 0 -2.02344,0.24609 20.392218,20.392218 0 0 0 -1.98828,0.44531 20.392218,20.392218 0 0 0 -1.93555,0.64258 20.392218,20.392218 0 0 0 -1.85937,0.83399 20.392218,20.392218 0 0 0 -1.76953,1.01367 20.392218,20.392218 0 0 0 -1.65821,1.18555 20.392218,20.392218 0 0 0 -1.53125,1.3457 20.392218,20.392218 0 0 0 -1.38867,1.49023 20.392218,20.392218 0 0 0 -1.23437,1.62305 20.392218,20.392218 0 0 0 -1.06446,1.73828 20.392218,20.392218 0 0 0 -0.88672,1.83594 20.392218,20.392218 0 0 0 -0.69922,1.91406 20.392218,20.392218 0 0 0 -0.5039,1.97461 20.392218,20.392218 0 0 0 -0.30469,2.01563 20.392218,20.392218 0 0 0 -0.10156,2.03711 20.392218,20.392218 0 0 0 0.0508,1.4414 20.392218,20.392218 0 0 0 0.24609,2.02344 20.392218,20.392218 0 0 0 0.44532,1.99023 20.392218,20.392218 0 0 0 0.64257,1.9336 20.392218,20.392218 0 0 0 0.83399,1.86133 20.392218,20.392218 0 0 0 1.01367,1.76757 20.392218,20.392218 0 0 0 1.18555,1.65821 20.392218,20.392218 0 0 0 1.3457,1.53125 20.392218,20.392218 0 0 0 1.49024,1.38867 20.392218,20.392218 0 0 0 1.62304,1.23437 20.392218,20.392218 0 0 0 1.73828,1.06446 20.392218,20.392218 0 0 0 1.83594,0.88672 20.392218,20.392218 0 0 0 1.91406,0.69921 20.392218,20.392218 0 0 0 1.97461,0.50391 20.392218,20.392218 0 0 0 2.01563,0.30469 20.392218,20.392218 0 0 0 0.98242,0.0488 22.95228,22.95228 0 0 0 21.39062,-21.80664 z"
         id="path924"
         transform="matrix(0.26458333,0,0,0.26458333,0,26.06665)" />
    </g>
    <g
       id="g936"
       transform="matrix(1.0435143,0,0,1.0435143,19.51407,27.673661)">
      <circle
         r="6.0727906"
         cy="147.42247"
         cx="116.3173"
         id="circle932"
         style="opacity:1;fill:url(#radialGradient938);fill-opacity:1;fill-rule:nonzero;stroke:none;stroke-width:0.66145831;stroke-linecap:butt;stroke-linejoin:round;stroke-miterlimit:4;stroke-dasharray:none;stroke-opacity:1" />
      <path
         transform="matrix(0.26458333,0,0,0.26458333,0,26.06665)"
         id="path934"
         d="m 462.52148,459.75977 a 20.392218,20.392218 0 0 0 -0.24218,-1.99805 20.392218,20.392218 0 0 0 -0.44532,-1.98828 20.392218,20.392218 0 0 0 -0.64257,-1.93555 20.392218,20.392218 0 0 0 -0.83399,-1.85937 20.392218,20.392218 0 0 0 -1.01367,-1.76954 20.392218,20.392218 0 0 0 -1.18555,-1.6582 20.392218,20.392218 0 0 0 -1.3457,-1.53125 20.392218,20.392218 0 0 0 -1.49023,-1.38867 20.392218,20.392218 0 0 0 -1.62305,-1.23438 20.392218,20.392218 0 0 0 -1.73828,-1.06445 20.392218,20.392218 0 0 0 -1.83594,-0.88672 20.392218,20.392218 0 0 0 -1.91406,-0.69922 20.392218,20.392218 0 0 0 -1.97461,-0.5039 20.392218,20.392218 0 0 0 -2.01563,-0.30469 20.392218,20.392218 0 0 0 -2.03711,-0.10156 20.392218,20.392218 0 0 0 -1.4414,0.0508 20.392218,20.392218 0 0 0 -2.02344,0.24609 20.392218,20.392218 0 0 0 -1.98828,0.44531 20.392218,20.392218 0 0 0 -1.93555,0.64258 20.392218,20.392218 0 0 0 -1.85937,0.83399 20.392218,20.392218 0 0 0 -1.76953,1.01367 20.392218,20.392218 0 0 0 -1.65821,1.18555 20.392218,20.392218 0 0 0 -1.53125,1.3457 20.392218,20.392218 0 0 0 -1.38867,1.49023 20.392218,20.392218 0 0 0 -1.23437,1.62305 20.392218,20.392218 0 0 0 -1.06446,1.73828 20.392218,20.392218 0 0 0 -0.88672,1.83594 20.392218,20.392218 0 0 0 -0.69922,1.91406 20.392218,20.392218 0 0 0 -0.5039,1.97461 20.392218,20.392218 0 0 0 -0.30469,2.01563 20.392218,20.392218 0 0 0 -0.10156,2.03711 20.392218,20.392218 0 0 0 0.0508,1.4414 20.392218,20.392218 0 0 0 0.24609,2.02344 20.392218,20.392218 0 0 0 0.44532,1.99023 20.392218,20.392218 0 0 0 0.64257,1.9336 20.392218,20.392218 0 0 0 0.83399,1.86133 20.392218,20.392218 0 0 0 1.01367,1.76757 20.392218,20.392218 0 0 0 1.18555,1.65821 20.392218,20.392218 0 0 0 1.3457,1.53125 20.392218,20.392218 0 0 0 1.49024,1.38867 20.392218,20.392218 0 0 0 1.62304,1.23437 20.392218,20.392218 0 0 0 1.73828,1.06446 20.392218,20.392218 0 0 0 1.83594,0.88672 20.392218,20.392218 0 0 0 1.91406,0.69921 20.392218,20.392218 0 0 0 1.97461,0.50391 20.392218,20.392218 0 0 0 2.01563,0.30469 20.392218,20.392218 0 0 0 0.98242,0.0488 22.95228,22.95228 0 0 0 21.39062,-21.80664 z"
         style="opacity:1;fill:url(#radialGradient940);fill-opacity:1;fill-rule:nonzero;stroke:none;stroke-width:2.5;stroke-linecap:butt;stroke-linejoin:round;stroke-miterlimit:4;stroke-dasharray:none;stroke-opacity:1"
         inkscape:connector-curvature="0" />
    </g>
    <g
       id="g946"
       transform="matrix(0.93472864,0,0,0.93472864,52.118829,24.024262)">
      <circle
         r="6.0727906"
         cy="147.42247"
         cx="116.3173"
         id="circle942"
         style="opacity:1;fill:url(#radialGradient948);fill-opacity:1;fill-rule:nonzero;stroke:none;stroke-width:0.66145831;stroke-linecap:butt;stroke-linejoin:round;stroke-miterlimit:4;stroke-dasharray:none;stroke-opacity:1" />
      <path
         transform="matrix(0.26458333,0,0,0.26458333,0,26.06665)"
         id="path944"
         d="m 462.52148,459.75977 a 20.392218,20.392218 0 0 0 -0.24218,-1.99805 20.392218,20.392218 0 0 0 -0.44532,-1.98828 20.392218,20.392218 0 0 0 -0.64257,-1.93555 20.392218,20.392218 0 0 0 -0.83399,-1.85937 20.392218,20.392218 0 0 0 -1.01367,-1.76954 20.392218,20.392218 0 0 0 -1.18555,-1.6582 20.392218,20.392218 0 0 0 -1.3457,-1.53125 20.392218,20.392218 0 0 0 -1.49023,-1.38867 20.392218,20.392218 0 0 0 -1.62305,-1.23438 20.392218,20.392218 0 0 0 -1.73828,-1.06445 20.392218,20.392218 0 0 0 -1.83594,-0.88672 20.392218,20.392218 0 0 0 -1.91406,-0.69922 20.392218,20.392218 0 0 0 -1.97461,-0.5039 20.392218,20.392218 0 0 0 -2.01563,-0.30469 20.392218,20.392218 0 0 0 -2.03711,-0.10156 20.392218,20.392218 0 0 0 -1.4414,0.0508 20.392218,20.392218 0 0 0 -2.02344,0.24609 20.392218,20.392218 0 0 0 -1.98828,0.44531 20.392218,20.392218 0 0 0 -1.93555,0.64258 20.392218,20.392218 0 0 0 -1.85937,0.83399 20.392218,20.392218 0 0 0 -1.76953,1.01367 20.392218,20.392218 0 0 0 -1.65821,1.18555 20.392218,20.392218 0 0 0 -1.53125,1.3457 20.392218,20.392218 0 0 0 -1.38867,1.49023 20.392218,20.392218 0 0 0 -1.23437,1.62305 20.392218,20.392218 0 0 0 -1.06446,1.73828 20.392218,20.392218 0 0 0 -0.88672,1.83594 20.392218,20.392218 0 0 0 -0.69922,1.91406 20.392218,20.392218 0 0 0 -0.5039,1.97461 20.392218,20.392218 0 0 0 -0.30469,2.01563 20.392218,20.392218 0 0 0 -0.10156,2.03711 20.392218,20.392218 0 0 0 0.0508,1.4414 20.392218,20.392218 0 0 0 0.24609,2.02344 20.392218,20.392218 0 0 0 0.44532,1.99023 20.392218,20.392218 0 0 0 0.64257,1.9336 20.392218,20.392218 0 0 0 0.83399,1.86133 20.392218,20.392218 0 0 0 1.01367,1.76757 20.392218,20.392218 0 0 0 1.18555,1.65821 20.392218,20.392218 0 0 0 1.3457,1.53125 20.392218,20.392218 0 0 0 1.49024,1.38867 20.392218,20.392218 0 0 0 1.62304,1.23437 20.392218,20.392218 0 0 0 1.73828,1.06446 20.392218,20.392218 0 0 0 1.83594,0.88672 20.392218,20.392218 0 0 0 1.91406,0.69921 20.392218,20.392218 0 0 0 1.97461,0.50391 20.392218,20.392218 0 0 0 2.01563,0.30469 20.392218,20.392218 0 0 0 0.98242,0.0488 22.95228,22.95228 0 0 0 21.39062,-21.80664 z"
         style="opacity:1;fill:url(#radialGradient950);fill-opacity:1;fill-rule:nonzero;stroke:none;stroke-width:2.5;stroke-linecap:butt;stroke-linejoin:round;stroke-miterlimit:4;stroke-dasharray:none;stroke-opacity:1"
         inkscape:connector-curvature="0" />
    </g>
    <g
       transform="matrix(0.58661451,0,0,0.58661451,37.910148,93.841817)"
       id="g956">
      <circle
         style="opacity:1;fill:url(#radialGradient958);fill-opacity:1;fill-rule:nonzero;stroke:none;stroke-width:0.66145831;stroke-linecap:butt;stroke-linejoin:round;stroke-miterlimit:4;stroke-dasharray:none;stroke-opacity:1"
         id="circle952"
         cx="116.3173"
         cy="147.42247"
         r="6.0727906" />
      <path
         inkscape:connector-curvature="0"
         style="opacity:1;fill:url(#radialGradient960);fill-opacity:1;fill-rule:nonzero;stroke:none;stroke-width:2.5;stroke-linecap:butt;stroke-linejoin:round;stroke-miterlimit:4;stroke-dasharray:none;stroke-opacity:1"
         d="m 462.52148,459.75977 a 20.392218,20.392218 0 0 0 -0.24218,-1.99805 20.392218,20.392218 0 0 0 -0.44532,-1.98828 20.392218,20.392218 0 0 0 -0.64257,-1.93555 20.392218,20.392218 0 0 0 -0.83399,-1.85937 20.392218,20.392218 0 0 0 -1.01367,-1.76954 20.392218,20.392218 0 0 0 -1.18555,-1.6582 20.392218,20.392218 0 0 0 -1.3457,-1.53125 20.392218,20.392218 0 0 0 -1.49023,-1.38867 20.392218,20.392218 0 0 0 -1.62305,-1.23438 20.392218,20.392218 0 0 0 -1.73828,-1.06445 20.392218,20.392218 0 0 0 -1.83594,-0.88672 20.392218,20.392218 0 0 0 -1.91406,-0.69922 20.392218,20.392218 0 0 0 -1.97461,-0.5039 20.392218,20.392218 0 0 0 -2.01563,-0.30469 20.392218,20.392218 0 0 0 -2.03711,-0.10156 20.392218,20.392218 0 0 0 -1.4414,0.0508 20.392218,20.392218 0 0 0 -2.02344,0.24609 20.392218,20.392218 0 0 0 -1.98828,0.44531 20.392218,20.392218 0 0 0 -1.93555,0.64258 20.392218,20.392218 0 0 0 -1.85937,0.83399 20.392218,20.392218 0 0 0 -1.76953,1.01367 20.392218,20.392218 0 0 0 -1.65821,1.18555 20.392218,20.392218 0 0 0 -1.53125,1.3457 20.392218,20.392218 0 0 0 -1.38867,1.49023 20.392218,20.392218 0 0 0 -1.23437,1.62305 20.392218,20.392218 0 0 0 -1.06446,1.73828 20.392218,20.392218 0 0 0 -0.88672,1.83594 20.392218,20.392218 0 0 0 -0.69922,1.91406 20.392218,20.392218 0 0 0 -0.5039,1.97461 20.392218,20.392218 0 0 0 -0.30469,2.01563 20.392218,20.392218 0 0 0 -0.10156,2.03711 20.392218,20.392218 0 0 0 0.0508,1.4414 20.392218,20.392218 0 0 0 0.24609,2.02344 20.392218,20.392218 0 0 0 0.44532,1.99023 20.392218,20.392218 0 0 0 0.64257,1.9336 20.392218,20.392218 0 0 0 0.83399,1.86133 20.392218,20.392218 0 0 0 1.01367,1.76757 20.392218,20.392218 0 0 0 1.18555,1.65821 20.392218,20.392218 0 0 0 1.3457,1.53125 20.392218,20.392218 0 0 0 1.49024,1.38867 20.392218,20.392218 0 0 0 1.62304,1.23437 20.392218,20.392218 0 0 0 1.73828,1.06446 20.392218,20.392218 0 0 0 1.83594,0.88672 20.392218,20.392218 0 0 0 1.91406,0.69921 20.392218,20.392218 0 0 0 1.97461,0.50391 20.392218,20.392218 0 0 0 2.01563,0.30469 20.392218,20.392218 0 0 0 0.98242,0.0488 22.95228,22.95228 0 0 0 21.39062,-21.80664 z"
         id="path954"
         transform="matrix(0.26458333,0,0,0.26458333,0,26.06665)" />
    </g>
    <g
       transform="matrix(0.45889888,0,0,0.45889888,64.905489,60.792259)"
       id="g966">
      <circle
         style="opacity:1;fill:url(#radialGradient968);fill-opacity:1;fill-rule:nonzero;stroke:none;stroke-width:0.66145831;stroke-linecap:butt;stroke-linejoin:round;stroke-miterlimit:4;stroke-dasharray:none;stroke-opacity:1"
         id="circle962"
         cx="116.3173"
         cy="147.42247"
         r="6.0727906" />
      <path
         inkscape:connector-curvature="0"
         style="opacity:1;fill:url(#radialGradient970);fill-opacity:1;fill-rule:nonzero;stroke:none;stroke-width:2.5;stroke-linecap:butt;stroke-linejoin:round;stroke-miterlimit:4;stroke-dasharray:none;stroke-opacity:1"
         d="m 462.52148,459.75977 a 20.392218,20.392218 0 0 0 -0.24218,-1.99805 20.392218,20.392218 0 0 0 -0.44532,-1.98828 20.392218,20.392218 0 0 0 -0.64257,-1.93555 20.392218,20.392218 0 0 0 -0.83399,-1.85937 20.392218,20.392218 0 0 0 -1.01367,-1.76954 20.392218,20.392218 0 0 0 -1.18555,-1.6582 20.392218,20.392218 0 0 0 -1.3457,-1.53125 20.392218,20.392218 0 0 0 -1.49023,-1.38867 20.392218,20.392218 0 0 0 -1.62305,-1.23438 20.392218,20.392218 0 0 0 -1.73828,-1.06445 20.392218,20.392218 0 0 0 -1.83594,-0.88672 20.392218,20.392218 0 0 0 -1.91406,-0.69922 20.392218,20.392218 0 0 0 -1.97461,-0.5039 20.392218,20.392218 0 0 0 -2.01563,-0.30469 20.392218,20.392218 0 0 0 -2.03711,-0.10156 20.392218,20.392218 0 0 0 -1.4414,0.0508 20.392218,20.392218 0 0 0 -2.02344,0.24609 20.392218,20.392218 0 0 0 -1.98828,0.44531 20.392218,20.392218 0 0 0 -1.93555,0.64258 20.392218,20.392218 0 0 0 -1.85937,0.83399 20.392218,20.392218 0 0 0 -1.76953,1.01367 20.392218,20.392218 0 0 0 -1.65821,1.18555 20.392218,20.392218 0 0 0 -1.53125,1.3457 20.392218,20.392218 0 0 0 -1.38867,1.49023 20.392218,20.392218 0 0 0 -1.23437,1.62305 20.392218,20.392218 0 0 0 -1.06446,1.73828 20.392218,20.392218 0 0 0 -0.88672,1.83594 20.392218,20.392218 0 0 0 -0.69922,1.91406 20.392218,20.392218 0 0 0 -0.5039,1.97461 20.392218,20.392218 0 0 0 -0.30469,2.01563 20.392218,20.392218 0 0 0 -0.10156,2.03711 20.392218,20.392218 0 0 0 0.0508,1.4414 20.392218,20.392218 0 0 0 0.24609,2.02344 20.392218,20.392218 0 0 0 0.44532,1.99023 20.392218,20.392218 0 0 0 0.64257,1.9336 20.392218,20.392218 0 0 0 0.83399,1.86133 20.392218,20.392218 0 0 0 1.01367,1.76757 20.392218,20.392218 0 0 0 1.18555,1.65821 20.392218,20.392218 0 0 0 1.3457,1.53125 20.392218,20.392218 0 0 0 1.49024,1.38867 20.392218,20.392218 0 0 0 1.62304,1.23437 20.392218,20.392218 0 0 0 1.73828,1.06446 20.392218,20.392218 0 0 0 1.83594,0.88672 20.392218,20.392218 0 0 0 1.91406,0.69921 20.392218,20.392218 0 0 0 1.97461,0.50391 20.392218,20.392218 0 0 0 2.01563,0.30469 20.392218,20.392218 0 0 0 0.98242,0.0488 22.95228,22.95228 0 0 0 21.39062,-21.80664 z"
         id="path964"
         transform="matrix(0.26458333,0,0,0.26458333,0,26.06665)" />
    </g>
    <g
       id="g976"
       transform="matrix(0.65889889,0,0,0.65889889,30.897859,51.394687)">
      <circle
         r="6.0727906"
         cy="147.42247"
         cx="116.3173"
         id="circle972"
         style="opacity:1;fill:url(#radialGradient978);fill-opacity:1;fill-rule:nonzero;stroke:none;stroke-width:0.66145831;stroke-linecap:butt;stroke-linejoin:round;stroke-miterlimit:4;stroke-dasharray:none;stroke-opacity:1" />
      <path
         transform="matrix(0.26458333,0,0,0.26458333,0,26.06665)"
         id="path974"
         d="m 462.52148,459.75977 a 20.392218,20.392218 0 0 0 -0.24218,-1.99805 20.392218,20.392218 0 0 0 -0.44532,-1.98828 20.392218,20.392218 0 0 0 -0.64257,-1.93555 20.392218,20.392218 0 0 0 -0.83399,-1.85937 20.392218,20.392218 0 0 0 -1.01367,-1.76954 20.392218,20.392218 0 0 0 -1.18555,-1.6582 20.392218,20.392218 0 0 0 -1.3457,-1.53125 20.392218,20.392218 0 0 0 -1.49023,-1.38867 20.392218,20.392218 0 0 0 -1.62305,-1.23438 20.392218,20.392218 0 0 0 -1.73828,-1.06445 20.392218,20.392218 0 0 0 -1.83594,-0.88672 20.392218,20.392218 0 0 0 -1.91406,-0.69922 20.392218,20.392218 0 0 0 -1.97461,-0.5039 20.392218,20.392218 0 0 0 -2.01563,-0.30469 20.392218,20.392218 0 0 0 -2.03711,-0.10156 20.392218,20.392218 0 0 0 -1.4414,0.0508 20.392218,20.392218 0 0 0 -2.02344,0.24609 20.392218,20.392218 0 0 0 -1.98828,0.44531 20.392218,20.392218 0 0 0 -1.93555,0.64258 20.392218,20.392218 0 0 0 -1.85937,0.83399 20.392218,20.392218 0 0 0 -1.76953,1.01367 20.392218,20.392218 0 0 0 -1.65821,1.18555 20.392218,20.392218 0 0 0 -1.53125,1.3457 20.392218,20.392218 0 0 0 -1.38867,1.49023 20.392218,20.392218 0 0 0 -1.23437,1.62305 20.392218,20.392218 0 0 0 -1.06446,1.73828 20.392218,20.392218 0 0 0 -0.88672,1.83594 20.392218,20.392218 0 0 0 -0.69922,1.91406 20.392218,20.392218 0 0 0 -0.5039,1.97461 20.392218,20.392218 0 0 0 -0.30469,2.01563 20.392218,20.392218 0 0 0 -0.10156,2.03711 20.392218,20.392218 0 0 0 0.0508,1.4414 20.392218,20.392218 0 0 0 0.24609,2.02344 20.392218,20.392218 0 0 0 0.44532,1.99023 20.392218,20.392218 0 0 0 0.64257,1.9336 20.392218,20.392218 0 0 0 0.83399,1.86133 20.392218,20.392218 0 0 0 1.01367,1.76757 20.392218,20.392218 0 0 0 1.18555,1.65821 20.392218,20.392218 0 0 0 1.3457,1.53125 20.392218,20.392218 0 0 0 1.49024,1.38867 20.392218,20.392218 0 0 0 1.62304,1.23437 20.392218,20.392218 0 0 0 1.73828,1.06446 20.392218,20.392218 0 0 0 1.83594,0.88672 20.392218,20.392218 0 0 0 1.91406,0.69921 20.392218,20.392218 0 0 0 1.97461,0.50391 20.392218,20.392218 0 0 0 2.01563,0.30469 20.392218,20.392218 0 0 0 0.98242,0.0488 22.95228,22.95228 0 0 0 21.39062,-21.80664 z"
         style="opacity:1;fill:url(#radialGradient980);fill-opacity:1;fill-rule:nonzero;stroke:none;stroke-width:2.5;stroke-linecap:butt;stroke-linejoin:round;stroke-miterlimit:4;stroke-dasharray:none;stroke-opacity:1"
         inkscape:connector-curvature="0" />
    </g>
  </g>
</svg>
